#Comment line ignore any data following # character 
#Hierarchical Translation and Rotation (.htr) file 
[Header]	
#Header keywords are followed by a single value 
FileType HTR		#Single word string
DataType HTRS		#Translation followed by rotation and scale data
FileVersion 1		#integer
NumSegments 84		#integer
NumFrames 2		#integer
DataFrameRate 30		#integer, data frame rate in this file
EulerRotationOrder ZYX
CalibrationUnits mm
RotationUnits Degrees
GlobalAxisofGravity Y
BoneLengthAxis Y
ScaleFactor 1.00
[SegmentNames&Hierarchy]
#CHILD	PARENT
MASTER GLOBAL
root MASTER
chest root
L_mid_tent01 root
R_mid_tent01 root
spine01 root
Bip01_Neck chest
L_humerus chest
R_humerus chest
weapon_bone chest
Bip01_Head Bip01_Neck
eye_left_bone Bip01_Head
eye_right_bone Bip01_Head
L_forearm L_humerus
L_front_hand L_forearm
L_weapon_bone L_forearm
L_front_hand01_01 L_front_hand
L_front_hand02_01 L_front_hand
L_front_hand03_01 L_front_hand
L_front_hand01_02 L_front_hand01_01
L_front_hand02_02 L_front_hand02_01
L_front_hand03_02 L_front_hand03_01
R_forearm R_humerus
R_front_hand R_forearm
R_weapon_bone R_forearm
R_front_hand01_01 R_front_hand
R_front_hand02_01 R_front_hand
R_front_hand03_01 R_front_hand
R_front_hand01_02 R_front_hand01_01
R_front_hand02_02 R_front_hand02_01
R_front_hand03_02 R_front_hand03_01
null_rope01_connect L_mid_tent01
Rope1_Seg01 null_rope01_connect
Rope1_Seg02 Rope1_Seg01
Rope1_Seg03 Rope1_Seg02
Rope1_Seg04 Rope1_Seg03
Rope1_Seg05 Rope1_Seg04
Rope1_Seg06 Rope1_Seg05
Rope1_Seg07 Rope1_Seg06
Rope1_Seg09 Rope1_Seg07
L_mid_hand01 Rope1_Seg09
L_mid_hand02 Rope1_Seg09
L_mid_hand03 Rope1_Seg09
null_rope02_connect R_mid_tent01
Rope2_Seg01 null_rope02_connect
Rope2_Seg02 Rope2_Seg01
Rope2_Seg03 Rope2_Seg02
Rope2_Seg04 Rope2_Seg03
Rope2_Seg05 Rope2_Seg04
Rope2_Seg06 Rope2_Seg05
Rope2_Seg07 Rope2_Seg06
Rope2_Seg09 Rope2_Seg07
R_mid_hand01 Rope2_Seg09
R_mid_hand02 Rope2_Seg09
R_mid_hand03 Rope2_Seg09
spine02 spine01
spine03 spine02
pelvis spine03
null_rope03_connect pelvis
null_rope04_connect pelvis
Rope3_Seg01 null_rope03_connect
Rope3_Seg02 Rope3_Seg01
Rope3_Seg03 Rope3_Seg02
Rope3_Seg04 Rope3_Seg03
Rope3_Seg05 Rope3_Seg04
Rope3_Seg06 Rope3_Seg05
Rope3_Seg07 Rope3_Seg06
Rope3_Seg08 Rope3_Seg07
Rope3_Seg09 Rope3_Seg08
R_rear_hand01 Rope3_Seg09
R_rear_hand02 Rope3_Seg09
R_rear_hand03 Rope3_Seg09
Rope4_Seg01 null_rope04_connect
Rope4_Seg02 Rope4_Seg01
Rope4_Seg03 Rope4_Seg02
Rope4_Seg04 Rope4_Seg03
Rope4_Seg05 Rope4_Seg04
Rope4_Seg06 Rope4_Seg05
Rope4_Seg07 Rope4_Seg06
Rope4_Seg08 Rope4_Seg07
Rope4_Seg09 Rope4_Seg08
L_rear_hand01 Rope4_Seg09
L_rear_hand02 Rope4_Seg09
L_rear_hand03 Rope4_Seg09
[BasePosition]
#SegmentName Tx, Ty, Tz, Rx, Ry, Rz, BoneLength
MASTER 0.000000 0.000000 0.000000 -90.000000 0.000000 0.000000 10.000000 
root 0.000000 0.000000 0.000000 0.000000 0.000000 0.000000 10.000000 
chest 0.000000 0.000000 0.000000 0.000000 0.000000 0.000000 10.000000 
L_mid_tent01 0.000000 0.000000 0.000000 0.000000 0.000000 0.000000 10.000000 
R_mid_tent01 0.000000 0.000000 0.000000 0.000000 0.000000 0.000000 10.000000 
spine01 0.000000 0.000000 0.000000 0.000000 0.000000 0.000000 10.000000 
Bip01_Neck 0.000000 0.000000 0.000000 0.000000 0.000000 0.000000 10.000000 
L_humerus 0.000000 0.000000 0.000000 0.000000 0.000000 0.000000 10.000000 
R_humerus 0.000000 0.000000 0.000000 0.000000 0.000000 0.000000 10.000000 
weapon_bone 0.000000 0.000000 0.000000 0.000000 0.000000 0.000000 10.000000 
Bip01_Head 0.000000 0.000000 0.000000 0.000000 0.000000 0.000000 10.000000 
eye_left_bone 0.000000 0.000000 0.000000 0.000000 0.000000 0.000000 10.000000 
eye_right_bone 0.000000 0.000000 0.000000 0.000000 0.000000 0.000000 10.000000 
L_forearm 0.000000 0.000000 0.000000 0.000000 0.000000 0.000000 10.000000 
L_front_hand 0.000000 0.000000 0.000000 0.000000 0.000000 0.000000 10.000000 
L_weapon_bone 0.000000 0.000000 0.000000 0.000000 0.000000 0.000000 10.000000 
L_front_hand01_01 0.000000 0.000000 0.000000 0.000000 0.000000 0.000000 10.000000 
L_front_hand02_01 0.000000 0.000000 0.000000 0.000000 0.000000 0.000000 10.000000 
L_front_hand03_01 0.000000 0.000000 0.000000 0.000000 0.000000 0.000000 10.000000 
L_front_hand01_02 0.000000 0.000000 0.000000 0.000000 0.000000 0.000000 10.000000 
L_front_hand02_02 0.000000 0.000000 0.000000 0.000000 0.000000 0.000000 10.000000 
L_front_hand03_02 0.000000 0.000000 0.000000 0.000000 0.000000 0.000000 10.000000 
R_forearm 0.000000 0.000000 0.000000 0.000000 0.000000 0.000000 10.000000 
R_front_hand 0.000000 0.000000 0.000000 0.000000 0.000000 0.000000 10.000000 
R_weapon_bone 0.000000 0.000000 0.000000 0.000000 0.000000 0.000000 10.000000 
R_front_hand01_01 0.000000 0.000000 0.000000 0.000000 0.000000 0.000000 10.000000 
R_front_hand02_01 0.000000 0.000000 0.000000 0.000000 0.000000 0.000000 10.000000 
R_front_hand03_01 0.000000 0.000000 0.000000 0.000000 0.000000 0.000000 10.000000 
R_front_hand01_02 0.000000 0.000000 0.000000 0.000000 0.000000 0.000000 10.000000 
R_front_hand02_02 0.000000 0.000000 0.000000 0.000000 0.000000 0.000000 10.000000 
R_front_hand03_02 0.000000 0.000000 0.000000 0.000000 0.000000 0.000000 10.000000 
null_rope01_connect 0.000000 0.000000 0.000000 0.000000 0.000000 0.000000 10.000000 
Rope1_Seg01 0.000000 0.000000 0.000000 0.000000 0.000000 0.000000 10.000000 
Rope1_Seg02 0.000000 0.000000 0.000000 0.000000 0.000000 0.000000 10.000000 
Rope1_Seg03 0.000000 0.000000 0.000000 0.000000 0.000000 0.000000 10.000000 
Rope1_Seg04 0.000000 0.000000 0.000000 0.000000 0.000000 0.000000 10.000000 
Rope1_Seg05 0.000000 0.000000 0.000000 0.000000 0.000000 0.000000 10.000000 
Rope1_Seg06 0.000000 0.000000 0.000000 0.000000 0.000000 0.000000 10.000000 
Rope1_Seg07 0.000000 0.000000 0.000000 0.000000 0.000000 0.000000 10.000000 
Rope1_Seg09 0.000000 0.000000 0.000000 0.000000 0.000000 0.000000 10.000000 
L_mid_hand01 0.000000 0.000000 0.000000 0.000000 0.000000 0.000000 10.000000 
L_mid_hand02 0.000000 0.000000 0.000000 0.000000 0.000000 0.000000 10.000000 
L_mid_hand03 0.000000 0.000000 0.000000 0.000000 0.000000 0.000000 10.000000 
null_rope02_connect 0.000000 0.000000 0.000000 0.000000 0.000000 0.000000 10.000000 
Rope2_Seg01 0.000000 0.000000 0.000000 0.000000 0.000000 0.000000 10.000000 
Rope2_Seg02 0.000000 0.000000 0.000000 0.000000 0.000000 0.000000 10.000000 
Rope2_Seg03 0.000000 0.000000 0.000000 0.000000 0.000000 0.000000 10.000000 
Rope2_Seg04 0.000000 0.000000 0.000000 0.000000 0.000000 0.000000 10.000000 
Rope2_Seg05 0.000000 0.000000 0.000000 0.000000 0.000000 0.000000 10.000000 
Rope2_Seg06 0.000000 0.000000 0.000000 0.000000 0.000000 0.000000 10.000000 
Rope2_Seg07 0.000000 0.000000 0.000000 0.000000 0.000000 0.000000 10.000000 
Rope2_Seg09 0.000000 0.000000 0.000000 0.000000 0.000000 0.000000 10.000000 
R_mid_hand01 0.000000 0.000000 0.000000 0.000000 0.000000 0.000000 10.000000 
R_mid_hand02 0.000000 0.000000 0.000000 0.000000 0.000000 0.000000 10.000000 
R_mid_hand03 0.000000 0.000000 0.000000 0.000000 0.000000 0.000000 10.000000 
spine02 0.000000 0.000000 0.000000 0.000000 0.000000 0.000000 10.000000 
spine03 0.000000 0.000000 0.000000 0.000000 0.000000 0.000000 10.000000 
pelvis 0.000000 0.000000 0.000000 0.000000 0.000000 0.000000 10.000000 
null_rope03_connect 0.000000 0.000000 0.000000 0.000000 0.000000 0.000000 10.000000 
null_rope04_connect 0.000000 0.000000 0.000000 0.000000 0.000000 0.000000 10.000000 
Rope3_Seg01 0.000000 0.000000 0.000000 0.000000 0.000000 0.000000 10.000000 
Rope3_Seg02 0.000000 0.000000 0.000000 0.000000 0.000000 0.000000 10.000000 
Rope3_Seg03 0.000000 0.000000 0.000000 0.000000 0.000000 0.000000 10.000000 
Rope3_Seg04 0.000000 0.000000 0.000000 0.000000 0.000000 0.000000 10.000000 
Rope3_Seg05 0.000000 0.000000 0.000000 0.000000 0.000000 0.000000 10.000000 
Rope3_Seg06 0.000000 0.000000 0.000000 0.000000 0.000000 0.000000 10.000000 
Rope3_Seg07 0.000000 0.000000 0.000000 0.000000 0.000000 0.000000 10.000000 
Rope3_Seg08 0.000000 0.000000 0.000000 0.000000 0.000000 0.000000 10.000000 
Rope3_Seg09 0.000000 0.000000 0.000000 0.000000 0.000000 0.000000 10.000000 
R_rear_hand01 0.000000 0.000000 0.000000 0.000000 0.000000 0.000000 10.000000 
R_rear_hand02 0.000000 0.000000 0.000000 0.000000 0.000000 0.000000 10.000000 
R_rear_hand03 0.000000 0.000000 0.000000 0.000000 0.000000 0.000000 10.000000 
Rope4_Seg01 0.000000 0.000000 0.000000 0.000000 0.000000 0.000000 10.000000 
Rope4_Seg02 0.000000 0.000000 0.000000 0.000000 0.000000 0.000000 10.000000 
Rope4_Seg03 0.000000 0.000000 0.000000 0.000000 0.000000 0.000000 10.000000 
Rope4_Seg04 0.000000 0.000000 0.000000 0.000000 0.000000 0.000000 10.000000 
Rope4_Seg05 0.000000 0.000000 0.000000 0.000000 0.000000 0.000000 10.000000 
Rope4_Seg06 0.000000 0.000000 0.000000 0.000000 0.000000 0.000000 10.000000 
Rope4_Seg07 0.000000 0.000000 0.000000 0.000000 0.000000 0.000000 10.000000 
Rope4_Seg08 0.000000 0.000000 0.000000 0.000000 0.000000 0.000000 10.000000 
Rope4_Seg09 0.000000 0.000000 0.000000 0.000000 0.000000 0.000000 10.000000 
L_rear_hand01 0.000000 0.000000 0.000000 0.000000 0.000000 0.000000 10.000000 
L_rear_hand02 0.000000 0.000000 0.000000 0.000000 0.000000 0.000000 10.000000 
L_rear_hand03 0.000000 0.000000 0.000000 0.000000 0.000000 0.000000 10.000000 
#Beginning of Data. Separated by tabs
#Fr	Tx	Ty	Tz	Rx	Ry	Rz	SF
[MASTER]
31 0.000000 0.000000 0.000000 0.001660 0.001660 0.001660 0.000000
32 0.000000 0.000000 0.000000 0.001660 0.001660 0.001660 0.000000
[root]
31 -37.590969 10.537099 1475.364136 -91.706375 7.188744 -90.037125 1475.880493
32 -37.385098 10.029302 1479.558960 -91.706375 7.188744 -90.037125 1480.065186
[chest]
31 -84.512650 -34.090519 0.000000 -2.117274 0.462005 -179.268204 91.129311
32 -84.512650 -34.090519 0.000000 -2.117274 0.462005 -179.268204 91.129311
[L_mid_tent01]
31 27.299511 22.177458 -249.918259 -11.212391 7.173965 46.128521 252.381134
32 27.299511 22.177458 -249.918259 -11.212391 7.173965 46.128521 252.381134
[R_mid_tent01]
31 23.228794 24.509907 226.238495 -173.453110 -7.865565 48.320805 228.744751
32 23.228794 24.509907 226.238495 -173.453110 -7.865565 48.320805 228.744751
[spine01]
31 -0.361383 -0.195265 0.000000 -0.000001 -0.000007 22.052340 0.410763
32 -0.361383 -0.195265 0.000000 -0.000001 -0.000007 22.052340 0.410763
[Bip01_Neck]
31 165.484543 71.581718 0.000119 175.896118 1.177290 24.871183 180.302734
32 165.484543 71.581718 0.000119 175.896118 1.177290 24.871183 180.302734
[L_humerus]
31 -13.983130 -135.272980 -120.471481 177.317520 0.814944 177.327347 181.680161
32 -13.983130 -135.272980 -120.471481 177.317520 0.814944 177.327347 181.680161
[R_humerus]
31 -13.983309 -135.273102 125.287651 -179.087967 -0.295690 175.068390 184.909012
32 -13.983309 -135.273102 125.287651 -179.087967 -0.295690 175.068390 184.909012
[weapon_bone]
31 235.964890 -300.705902 0.000000 0.000000 -89.951546 -128.212341 382.234833
32 235.964890 -300.705902 0.000000 0.000000 -89.951546 -128.212341 382.234833
[Bip01_Head]
31 97.775497 22.186661 5.309563 3.366012 3.339071 -18.399078 100.401627
32 97.775497 22.186661 5.309563 3.366012 3.339071 -18.399078 100.401627
[eye_left_bone]
31 -24.626970 125.451866 -64.772606 0.000000 -90.000000 -99.840431 143.318359
32 -24.626970 125.451866 -64.772606 0.000000 -90.000000 -99.840431 143.318359
[eye_right_bone]
31 -24.626970 125.451866 64.327362 0.000000 -89.965736 80.156380 143.117676
32 -24.626970 125.451866 64.327362 0.000000 -89.965736 80.156380 143.117676
[L_forearm]
31 322.776093 0.000000 -0.000119 0.001372 -0.001904 -161.553818 322.776093
32 322.776093 0.000000 -0.000119 0.001372 -0.001904 -161.553818 322.776093
[L_front_hand]
31 241.149185 -0.042021 -3.300071 -179.659958 -2.242151 -0.019832 241.171753
32 241.149185 -0.042021 -3.300071 -179.659958 -2.242151 -0.019832 241.171753
[L_weapon_bone]
31 156.183838 0.000000 0.000000 0.000014 0.000007 0.000001 156.183838
32 156.183838 0.000000 0.000000 0.000014 0.000007 0.000001 156.183838
[L_front_hand01_01]
31 86.095154 20.947098 -0.655860 0.405585 -0.442306 -4.620490 88.609184
32 86.095154 20.947098 -0.655860 0.405585 -0.442306 -4.620490 88.609184
[L_front_hand02_01]
31 86.935165 -11.437475 24.513514 116.959450 3.630817 1.495453 91.046425
32 86.935165 -11.437475 24.513514 116.959450 3.630817 1.495453 91.046425
[L_front_hand03_01]
31 86.637497 -14.123976 -20.424902 -118.419884 -4.660555 -0.155069 90.126129
32 86.637497 -14.123976 -20.424902 -118.419884 -4.660555 -0.155069 90.126129
[L_front_hand01_02]
31 71.020905 -0.000179 0.000030 0.000004 -0.000005 -8.379269 71.020905
32 71.020905 -0.000179 0.000030 0.000004 -0.000005 -8.379269 71.020905
[L_front_hand02_02]
31 71.020927 -0.000119 0.000060 -0.000005 -0.000004 -8.379259 71.020927
32 71.020927 -0.000119 0.000060 -0.000005 -0.000004 -8.379259 71.020927
[L_front_hand03_02]
31 71.020905 -0.000060 0.000060 0.000015 -0.000040 -8.379267 71.020905
32 71.020905 -0.000060 0.000060 0.000015 -0.000040 -8.379267 71.020905
[R_forearm]
31 322.776428 -0.000060 0.000030 0.066610 0.203476 -163.260239 322.776428
32 322.776428 -0.000060 0.000030 0.066610 0.203476 -163.260239 322.776428
[R_front_hand]
31 238.847015 -0.006795 2.210259 -0.270529 1.703932 2.322530 238.857239
32 238.847015 -0.006795 2.210259 -0.270529 1.703932 2.322530 238.857239
[R_weapon_bone]
31 155.664093 0.002503 -0.000030 0.003487 0.001180 -90.988930 155.664078
32 155.664093 0.002503 -0.000030 0.003487 0.001180 -90.988930 155.664078
[R_front_hand01_01]
31 87.624611 14.231146 22.918642 -116.960213 3.496675 -1.324139 91.683487
32 87.624611 14.231146 22.918642 -116.960213 3.496675 -1.324139 91.683487
[R_front_hand02_01]
31 89.356956 14.367283 -19.491137 118.419647 -4.257089 0.609827 92.579636
32 89.356956 14.367283 -19.491137 118.419647 -4.257089 0.609827 92.579636
[R_front_hand03_01]
31 87.286232 -22.307278 -0.143439 -0.387970 -0.231462 4.232001 90.091743
32 87.286232 -22.307278 -0.143439 -0.387970 -0.231462 4.232001 90.091743
[R_front_hand01_02]
31 71.020905 0.000060 0.000119 -0.000005 -0.000020 8.379271 71.020905
32 71.020905 0.000060 0.000119 -0.000005 -0.000020 8.379271 71.020905
[R_front_hand02_02]
31 71.020844 -0.000030 -0.000119 0.000000 -0.000021 8.379271 71.020836
32 71.020844 -0.000030 -0.000119 0.000000 -0.000021 8.379271 71.020836
[R_front_hand03_02]
31 71.020905 0.000000 0.000030 -0.000001 -0.000020 8.379275 71.020905
32 71.020905 0.000000 0.000030 -0.000001 -0.000020 8.379275 71.020905
[null_rope01_connect]
31 328.732483 0.000000 -0.000238 160.552872 -75.066147 -124.625038 328.732483
32 328.732483 0.000000 -0.000238 160.552872 -75.066147 -124.625038 328.732483
[Rope1_Seg01]
31 0.000000 0.000000 0.000000 -120.353836 56.714878 -113.359680 0.000000
32 0.000000 0.000000 0.000000 -116.979790 56.985565 -111.265480 0.000000
[Rope1_Seg02]
31 139.999863 -0.000179 0.000000 17.621073 -0.047855 -12.331140 139.999863
32 139.999863 -0.000179 0.000000 16.723064 -0.224364 -11.960049 139.999863
[Rope1_Seg03]
31 139.999924 0.000060 -0.000060 15.198322 -1.493516 -7.107836 139.999924
32 139.999924 0.000060 -0.000060 13.933006 -1.595297 -6.734450 139.999924
[Rope1_Seg04]
31 139.999924 -0.000060 -0.000119 8.951076 -0.684047 -3.857592 139.999924
32 139.999924 -0.000060 -0.000119 7.921821 -0.885184 -3.451177 139.999924
[Rope1_Seg05]
31 139.999832 0.000119 -0.000060 13.039456 -4.209676 -2.457273 139.999832
32 139.999832 0.000119 -0.000060 12.042527 -3.682342 -2.810198 139.999832
[Rope1_Seg06]
31 139.999954 0.000119 -0.000060 15.392890 -9.764719 -0.609867 139.999954
32 139.999954 0.000119 -0.000060 16.847414 -8.713953 -2.329054 139.999954
[Rope1_Seg07]
31 139.999985 0.000060 0.000000 9.631307 -12.264503 2.783758 139.999985
32 139.999985 0.000060 0.000000 12.469504 -11.810235 0.502470 139.999985
[Rope1_Seg09]
31 121.602913 0.000119 -0.000089 -89.793175 -1.359789 0.847147 121.602913
32 121.602913 0.000119 -0.000089 -89.793175 -1.359789 0.847147 121.602913
[L_mid_hand01]
31 103.859421 1.038730 8.195221 106.855484 -31.239275 -9.461397 104.187431
32 103.859421 1.038730 8.195221 106.855484 -31.239275 -9.461397 104.187431
[L_mid_hand02]
31 105.572853 -4.139662 -10.864139 -142.331345 25.752670 -28.774628 106.211075
32 105.572853 -4.139662 -10.864139 -142.331345 25.752670 -28.774628 106.211075
[L_mid_hand03]
31 104.641464 17.579376 -3.913581 -16.122810 9.734291 34.223598 106.179977
32 104.641464 17.579376 -3.913581 -16.122810 9.734291 34.223598 106.179977
[null_rope02_connect]
31 328.732849 0.000179 -0.000119 174.610336 81.478409 -39.424759 328.732849
32 328.732849 0.000179 -0.000119 174.610336 81.478409 -39.424759 328.732849
[Rope2_Seg01]
31 0.000076 0.000111 0.000153 130.226212 55.291176 -100.460556 0.000204
32 0.000076 0.000112 0.000153 126.734077 54.627239 -103.844955 0.000204
[Rope2_Seg02]
31 139.999741 -0.000060 -0.000119 -1.720321 16.681019 -7.023271 139.999756
32 139.999741 -0.000060 -0.000119 -1.255464 16.893023 -7.745550 139.999756
[Rope2_Seg03]
31 140.000107 0.000030 0.000000 21.410740 17.297159 -17.039728 140.000107
32 140.000107 0.000030 0.000000 21.059914 17.140022 -17.569124 140.000107
[Rope2_Seg04]
31 139.999802 0.000000 -0.000060 -28.624725 10.504085 -0.004970 139.999802
32 139.999802 0.000000 -0.000060 -22.981718 10.537781 -0.631089 139.999802
[Rope2_Seg05]
31 139.999985 -0.000060 0.000119 -47.026985 -1.763505 25.895964 139.999985
32 139.999985 -0.000060 0.000119 -50.099285 1.252230 23.958286 139.999985
[Rope2_Seg06]
31 139.999893 -0.000030 -0.000119 -4.382532 -7.618604 6.909297 139.999893
32 139.999893 -0.000030 -0.000119 -5.148977 -6.542933 6.736028 139.999893
[Rope2_Seg07]
31 139.999893 0.000060 -0.000060 -1.632684 -3.457294 3.144092 139.999893
32 139.999893 0.000060 -0.000060 -1.950586 -3.029039 3.076895 139.999893
[Rope2_Seg09]
31 121.338966 0.000089 -0.000060 33.793236 -1.359788 -0.847141 121.338966
32 121.338966 0.000089 -0.000060 33.793236 -1.359788 -0.847141 121.338966
[R_mid_hand01]
31 104.680779 11.144459 -10.335981 -41.523792 25.424656 28.595957 105.778534
32 104.680779 11.144459 -10.335981 -41.523792 25.424656 28.595957 105.778534
[R_mid_hand02]
31 104.070427 2.443552 8.231699 72.847389 -32.746803 10.013901 104.424065
32 104.070427 2.443552 8.231699 72.847389 -32.746803 10.013901 104.424065
[R_mid_hand03]
31 106.028137 -11.221827 -5.996406 -167.901306 10.259192 -37.009720 106.788818
32 106.028137 -11.221827 -5.996406 -167.901306 10.259192 -37.009720 106.788818
[spine02]
31 129.756927 0.001550 0.000119 0.360061 -4.044797 -12.915058 129.756927
32 129.756927 0.001550 0.000119 0.360061 -4.044797 -12.915058 129.756927
[spine03]
31 78.613846 0.087372 -4.898873 1.896495 3.831288 16.473045 78.766380
32 78.613846 0.087372 -4.898873 1.896495 3.831288 16.473045 78.766380
[pelvis]
31 169.435242 0.051022 0.000000 -0.060465 -0.180225 14.087930 169.435257
32 169.435242 0.051022 0.000000 -0.060465 -0.180225 14.087930 169.435257
[null_rope03_connect]
31 -1.257226 -2.466202 137.391083 -168.629776 -89.386429 -148.244614 137.418976
32 -1.257226 -2.466202 137.391083 -168.629745 -89.386429 -148.244797 137.418976
[null_rope04_connect]
31 -1.259640 -2.480268 -137.844437 -168.629776 -89.386429 -148.244614 137.872513
32 -1.259640 -2.480268 -137.844437 -168.629745 -89.386429 -148.244797 137.872513
[Rope3_Seg01]
31 0.000000 0.000000 0.000000 -132.849976 8.284412 -105.752495 0.000000
32 0.000000 0.000000 0.000000 -132.210236 7.055451 -103.756004 0.000000
[Rope3_Seg02]
31 139.999924 -0.000119 0.000060 -3.462925 -8.266097 0.247004 139.999924
32 139.999924 -0.000119 0.000060 -3.444380 -7.671893 1.556755 139.999924
[Rope3_Seg03]
31 139.999924 -0.000119 0.000119 -3.305274 -10.018838 0.226889 139.999924
32 139.999924 -0.000119 0.000119 -3.579482 -9.060005 2.042516 139.999924
[Rope3_Seg04]
31 139.999924 0.000119 0.000000 -3.495610 -12.927299 1.602886 139.999924
32 139.999924 0.000119 0.000000 -4.336469 -11.062227 4.276062 139.999924
[Rope3_Seg05]
31 139.999924 -0.000238 0.000060 0.357172 -5.076911 -6.780571 139.999924
32 139.999924 -0.000238 0.000060 0.347815 -6.223714 -7.724976 139.999924
[Rope3_Seg06]
31 139.999893 -0.000119 -0.000060 0.490022 0.318566 -8.005701 139.999893
32 139.999893 -0.000119 -0.000060 0.762856 -1.819439 -9.771620 139.999893
[Rope3_Seg07]
31 139.999771 0.000060 -0.000119 0.472590 -1.401762 -4.105304 139.999771
32 139.999771 0.000060 -0.000119 0.548353 -2.278140 -4.586167 139.999771
[Rope3_Seg08]
31 139.999985 -0.000060 0.000000 0.462839 -0.927856 -2.579110 139.999985
32 139.999985 -0.000060 0.000000 0.512259 -1.445179 -2.824379 139.999985
[Rope3_Seg09]
31 90.185997 -0.000179 -0.000060 89.793228 -1.359877 -0.847183 90.185997
32 90.185997 -0.000179 -0.000060 89.793228 -1.359877 -0.847183 90.185997
[R_rear_hand01]
31 103.366196 -6.073594 -10.757982 -161.551193 16.666374 -30.088671 104.101845
32 103.366196 -6.073594 -10.757982 -161.551193 16.666374 -30.088671 104.101845
[R_rear_hand02]
31 100.509819 12.039542 -7.992327 -34.280552 19.289745 28.875523 101.543350
32 100.509819 12.039542 -7.992327 -34.280552 19.289745 28.875523 101.543350
[R_rear_hand03]
31 101.539970 5.215704 5.435467 83.366440 -30.933914 7.284830 101.819031
32 101.539970 5.215704 5.435467 83.366440 -30.933914 7.284830 101.819031
[Rope4_Seg01]
31 0.000010 0.000038 -0.000114 40.688705 25.611727 -119.369240 0.000121
32 0.000010 0.000038 -0.000114 41.529282 26.705467 -117.366531 0.000121
[Rope4_Seg02]
31 139.999985 0.000060 0.000119 0.548465 3.246988 6.001732 139.999985
32 139.999985 0.000060 0.000119 0.379921 2.320733 5.467670 139.999985
[Rope4_Seg03]
31 139.999924 0.000000 -0.000238 0.226796 4.861835 8.910716 139.999924
32 139.999924 0.000000 -0.000238 0.076080 3.368015 7.916820 139.999924
[Rope4_Seg04]
31 139.999985 0.000000 0.000119 -1.605143 8.049589 17.009262 139.999985
32 139.999985 0.000000 0.000119 -1.408680 4.302106 14.026036 139.999985
[Rope4_Seg05]
31 139.999802 -0.000060 -0.000119 -2.769155 7.279296 11.290600 139.999802
32 139.999802 -0.000060 -0.000119 -2.254563 7.804941 12.571754 139.999802
[Rope4_Seg06]
31 139.999924 0.000000 0.000060 0.886219 2.455303 -0.043679 139.999924
32 139.999924 0.000000 0.000060 -0.061682 4.788733 2.984243 139.999924
[Rope4_Seg07]
31 139.999802 0.000000 0.000000 -0.495645 1.870095 1.962325 139.999802
32 139.999802 0.000000 0.000000 -0.931421 2.524920 3.018969 139.999802
[Rope4_Seg08]
31 139.999924 0.000000 0.000119 -1.886280 1.104581 1.190457 139.999924
32 139.999924 0.000000 0.000119 -2.191940 1.445975 1.794557 139.999924
[Rope4_Seg09]
31 90.185791 0.000060 0.000060 -135.617828 2.228885 0.850567 90.185791
32 90.185791 0.000060 0.000060 -135.617828 2.228885 0.850567 90.185791
[L_rear_hand01]
31 101.696655 -8.392275 -7.654577 -34.454281 -18.946800 151.655121 102.329041
32 101.696655 -8.392275 -7.654577 -34.454281 -18.946800 151.655121 102.329041
[L_rear_hand02]
31 102.726799 -1.568258 5.773216 83.407906 30.330435 172.796509 102.900848
32 102.726799 -1.568258 5.773216 83.407906 30.330435 172.796509 102.900848
[L_rear_hand03]
31 104.552910 9.721220 -10.420293 -161.379868 -16.473232 -150.512238 105.519653
32 104.552910 9.721220 -10.420293 -161.379868 -16.473232 -150.512238 105.519653
